<svg xmlns="http://www.w3.org/2000/svg" xmlns:xlink="http://www.w3.org/1999/xlink" version="1.1" x="0px" y="0px" viewBox="0 0 18 22.5" style="enable-background:new 0 0 18 18;" xml:space="preserve"><title>Artboard 16</title><path d="M16.1,1C16.6,1,17,1.4,17,1.9v4.3C17,6.6,16.6,7,16.1,7h-4.3C11.4,7,11,6.6,11,6.1V1.9C11,1.4,11.4,1,11.8,1H16.1 M16.1,0  h-4.3c-1,0-1.8,0.9-1.8,1.9v4.3c0,1,0.8,1.8,1.8,1.9h4.3c1,0,1.9-0.8,1.9-1.8c0,0,0,0,0,0V1.9C18,0.8,17.2,0,16.1,0  C16.1,0,16.1,0,16.1,0z"/><path d="M6.1,1C6.6,1,7,1.3,7,1.8c0,0,0,0,0,0v4.3C7,6.6,6.6,7,6.1,7c0,0,0,0,0,0H1.8C1.4,7,1,6.6,1,6.1V1.9C1,1.4,1.4,1,1.8,1H6.1   M6.1,0H1.8C0.8,0,0,0.9,0,1.9v4.3C0,7.1,0.8,8,1.8,8h4.3C7.1,8,8,7.2,8,6.2c0,0,0,0,0,0V1.9C8,0.8,7.2,0,6.1,0C6.1,0,6.1,0,6.1,0z"/><path d="M16.1,11c0.5,0,0.9,0.4,0.9,0.9v4.3c0,0.5-0.4,0.9-0.9,0.9h-4.3c-0.5,0-0.9-0.4-0.9-0.9l0,0v-4.3c0-0.5,0.4-0.9,0.9-0.9  H16.1 M16.1,10h-4.3c-1,0-1.8,0.9-1.8,1.9v4.3c0,1,0.8,1.8,1.8,1.9h4.3c1,0,1.9-0.8,1.9-1.8c0,0,0,0,0,0v-4.3  C18,10.8,17.2,10,16.1,10C16.1,10,16.1,10,16.1,10z"/><path d="M6.1,11C6.6,11,7,11.4,7,11.9v4.3C7,16.6,6.6,17,6.1,17H1.8C1.4,17,1,16.6,1,16.1v-4.3C1,11.4,1.4,11,1.8,11H6.1 M6.1,10  H1.8c-1,0-1.8,0.9-1.8,1.9v4.3c0,1,0.8,1.8,1.8,1.9h4.3c1,0,1.9-0.8,1.9-1.8c0,0,0,0,0,0v-4.3C8,10.8,7.2,10,6.1,10  C6.1,10,6.1,10,6.1,10z"/><text x="0" y="33" fill="#000000" font-size="5px" font-weight="bold" font-family="'Helvetica Neue', Helvetica, Arial-Unicode, Arial, Sans-serif">Created by Kameo Gregson</text><text x="0" y="38" fill="#000000" font-size="5px" font-weight="bold" font-family="'Helvetica Neue', Helvetica, Arial-Unicode, Arial, Sans-serif">from the Noun Project</text></svg>