<svg xmlns="http://www.w3.org/2000/svg" xmlns:xlink="http://www.w3.org/1999/xlink" xml:space="preserve" version="1.1" style="shape-rendering:geometricPrecision;text-rendering:geometricPrecision;image-rendering:optimizeQuality;" viewBox="0 0 292 248.75" x="0px" y="0px" fill-rule="evenodd" clip-rule="evenodd"><defs><style type="text/css">
   
    .fil0 {fill:black}
   
  </style></defs><g><path class="fil0" d="M53 73l-4 0 -1 -15 -1 15 -7 0 0 36 -1 0 0 -14 -5 0 0 -37 -2 0 0 -2 -2 0 0 -3 -4 0 0 -14 -1 14 -4 0 0 3 -2 0 0 2 -1 0 0 51 -2 0 0 -24 -16 0 0 26 0 5 0 1 292 0 0 -33 -6 0 0 -68 -21 11 0 75 -2 0 0 -17 -16 0 0 16 -2 0 0 -43 -1 0 0 -2 -13 0 0 2 -1 0 0 37 -6 0 0 7 -1 0 0 -29 -7 0 -2 0 -3 0 -1 0 0 -10 -6 0 0 0 -10 0 0 46 -2 0 0 -80 -16 0 0 57 -1 0 0 -40 -3 0 0 -1 -11 0 0 1 -2 0 0 63 -2 0 0 -42 -16 0 0 38 -1 0 0 -15 -16 -5 0 20 -2 0 0 -38 -7 -4 -2 -8 -7 -4 0 58 -2 0c0,-23 0,-53 0,-69l-16 0c0,11 0,29 0,46l-1 0 0 -57 -6 0 0 -5 -1 0 0 -12 -1 0 0 -12 -1 0 0 12 -1 0 0 12 -1 0 0 5 -5 0 0 80 -2 0 0 -61 -3 0 -7 15 -6 0 0 10zm-9 38l1 0 0 -1 -1 0 0 1zm7 0l1 0 0 -1 -1 0 0 1zm160 0l1 0 0 -1 -1 0 0 1zm7 0l1 0 0 -1 -1 0 0 1zm64 -72l1 0 0 2 -1 0 0 -2zm-3 0l1 0 0 2 -1 0 0 -2zm-6 0l1 0 0 2 -1 0 0 -2zm-3 0l1 0 0 2 -1 0 0 -2zm12 -3l1 0 0 2 -1 0 0 -2zm-9 0l1 0 0 2 -1 0 0 -2zm9 -3l1 0 0 2 -1 0 0 -2zm-6 0l1 0 0 2 -1 0 0 -2zm-6 0l1 0 0 2 -1 0 0 -2zm9 -3l1 0 0 2 -1 0 0 -2zm-3 0l1 0 0 2 -1 0 0 -2zm-6 0l1 0 0 2 -1 0 0 -2zm12 44l1 0 0 2 -1 0 0 -2zm-6 -3l1 0 0 2 -1 0 0 -2zm-6 0l1 0 0 2 -1 0 0 -2zm9 -3l1 0 0 2 -1 0 0 -2zm-3 -2l1 0 0 1 -1 0 0 -1zm-3 0l1 0 0 1 -1 0 0 -1zm9 -3l1 0 0 1 -1 0 0 -1zm-3 0l1 0 0 1 -1 0 0 -1zm-3 0l1 0 0 1 -1 0 0 -1zm-6 0l1 0 0 1 -1 0 0 -1zm12 -6l1 0 0 1 -1 0 0 -1zm-6 0l1 0 0 1 -1 0 0 -1zm-6 0l1 0 0 1 -1 0 0 -1zm12 -3l1 0 0 2 -1 0 0 -2zm-6 0l1 0 0 2 -1 0 0 -2zm-6 0l1 0 0 2 -1 0 0 -2zm12 -3l1 0 0 2 -1 0 0 -2zm-9 0l1 0 0 2 -1 0 0 -2zm6 -3l1 0 0 2 -1 0 0 -2zm-3 0l1 0 0 2 -1 0 0 -2zm-6 0l1 0 0 2 -1 0 0 -2zm12 -3l1 0 0 2 -1 0 0 -2zm-12 0l1 0 0 2 -1 0 0 -2zm12 -3l1 0 0 2 -1 0 0 -2zm-3 0l1 0 0 2 -1 0 0 -2zm-3 0l1 0 0 2 -1 0 0 -2zm-6 0l1 0 0 2 -1 0 0 -2zm9 67l1 0 0 2 -1 0 0 -2zm-3 0l1 0 0 2 -1 0 0 -2zm-6 0l1 0 0 2 -1 0 0 -2zm9 -2l1 0 0 1 -1 0 0 -1zm-6 0l1 0 0 1 -1 0 0 -1zm9 -3l1 0 0 1 -1 0 0 -1zm-3 0l1 0 0 1 -1 0 0 -1zm-3 0l1 0 0 1 -1 0 0 -1zm-6 0l1 0 0 1 -1 0 0 -1zm3 -3l1 0 0 1 -1 0 0 -1zm9 -3l1 0 0 1 -1 0 0 -1zm-6 0l1 0 0 1 -1 0 0 -1zm-3 0l1 0 0 1 -1 0 0 -1zm9 -3l1 0 0 2 -1 0 0 -2zm-3 0l1 0 0 2 -1 0 0 -2zm-3 0l1 0 0 2 -1 0 0 -2zm-6 0l1 0 0 2 -1 0 0 -2zm9 -3l1 0 0 2 -1 0 0 -2zm-3 0l1 0 0 2 -1 0 0 -2zm-6 0l1 0 0 2 -1 0 0 -2zm12 -3l1 0 0 2 -1 0 0 -2zm-6 0l1 0 0 2 -1 0 0 -2zm6 -3l1 0 0 2 -1 0 0 -2zm-6 0l1 0 0 2 -1 0 0 -2zm-6 0l1 0 0 2 -1 0 0 -2zm9 -3l1 0 0 2 -1 0 0 -2zm-6 0l1 0 0 2 -1 0 0 -2zm9 -3l1 0 0 2 -1 0 0 -2zm-9 0l1 0 0 2 -1 0 0 -2zm3 -3l1 0 0 2 -1 0 0 -2zm-6 0l1 0 0 2 -1 0 0 -2zm-3 -41l1 0 0 2 -1 0 0 -2zm0 -6l1 0 0 2 -1 0 0 -2zm0 36l1 0 0 1 -1 0 0 -1zm0 -9l1 0 0 1 -1 0 0 -1zm0 -6l1 0 0 2 -1 0 0 -2zm0 -3l1 0 0 2 -1 0 0 -2zm0 -3l1 0 0 2 -1 0 0 -2zm0 62l1 0 0 1 -1 0 0 -1zm0 -6l1 0 0 1 -1 0 0 -1zm0 -6l1 0 0 2 -1 0 0 -2zm0 -9l1 0 0 2 -1 0 0 -2zm0 -9l1 0 0 2 -1 0 0 -2zm-77 27l1 0 0 2 -1 0 0 -2zm-7 0l1 0 0 2 -1 0 0 -2zm2 -3l1 0 0 2 -1 0 0 -2zm5 -3l1 0 0 2 -1 0 0 -2zm-12 0l1 0 0 2 -1 0 0 -2zm12 -6l1 0 0 1 -1 0 0 -1zm-7 0l1 0 0 1 -1 0 0 -1zm-5 0l1 0 0 1 -1 0 0 -1zm7 -3l1 0 0 1 -1 0 0 -1zm-7 0l1 0 0 1 -1 0 0 -1zm12 -3l1 0 0 1 -1 0 0 -1zm-10 0l1 0 0 1 -1 0 0 -1zm76 23l1 0 0 2 -1 0 0 -2zm-8 0l1 0 0 2 -1 0 0 -2zm13 -3l1 0 0 2 -1 0 0 -2zm-8 0l1 0 0 2 -1 0 0 -2zm5 -2l1 0 0 1 -1 0 0 -1zm-10 0l1 0 0 1 -1 0 0 -1zm13 -3l1 0 0 1 0 0 -1 0 0 -1zm-13 0l1 0 0 1 -1 0 0 -1zm10 -3l1 0 0 1 -1 0 0 -1zm-5 0l1 0 0 1 -1 0 0 -1zm-2 0l1 0 0 1 -1 0 0 -1zm10 -3l1 0 0 2 -1 0 0 -2zm-5 0l1 0 0 2 -1 0 0 -2zm-3 0l1 0 0 2 -1 0 0 -2zm-5 0l1 0 0 2 -1 0 0 -2zm10 -3l1 0 0 2 -1 0 0 -2zm-2 0l1 0 0 2 -1 0 0 -2zm-5 0l1 0 0 2 -1 0 0 -2zm-3 0l1 0 0 2 -1 0 0 -2zm13 -3l1 0 0 2 -1 0 0 -2zm-3 0l1 0 0 2 -1 0 0 -2zm-2 0l1 0 0 2 -1 0 0 -2zm-3 0l1 0 0 2 -1 0 0 -2zm-2 0l1 0 0 2 -1 0 0 -2zm-3 0l1 0 0 2 -1 0 0 -2zm13 -3l1 0 0 2 -1 0 0 -2zm-3 0l1 0 0 2 -1 0 0 -2zm-5 0l1 0 0 2 -1 0 0 -2zm-2 0l1 0 0 2 -1 0 0 -2zm-3 0l1 0 0 2 -1 0 0 -2zm-46 23l1 0 0 1 -1 0 0 -1zm-5 0l1 0 0 1 -1 0 0 -1zm5 -3l1 0 0 1 -1 0 0 -1zm-2 -3l1 0 0 1 -1 0 0 -1zm2 -3l1 0 0 1 -1 0 0 -1zm-2 -3l1 0 0 2 -1 0 0 -2zm-3 0l1 0 0 2 -1 0 0 -2zm5 -3l1 0 0 2 -1 0 0 -2zm-5 0l1 0 0 2 -1 0 0 -2zm3 -3l1 0 0 2 -1 0 0 -2zm2 -3l1 0 0 2 -1 0 0 -2zm-2 0l1 0 0 2 -1 0 0 -2zm-3 0l1 0 0 2 -1 0 0 -2zm3 -3l1 0 0 2 -1 0 0 -2zm-3 0l1 0 0 2 -1 0 0 -2zm5 -3l1 0 0 2 -1 0 0 -2zm-5 0l1 0 0 2 -1 0 0 -2zm5 -3l1 0 0 2 -1 0 0 -2zm-2 0l1 0 0 2 -1 0 0 -2zm-3 0l1 0 0 2 -1 0 0 -2zm5 -2l1 0 0 1 -1 0 0 -1zm-2 0l1 0 0 1 -1 0 0 -1zm-3 0l1 0 0 1 -1 0 0 -1zm3 -3l1 0 0 1 -1 0 0 -1zm-3 0l1 0 0 1 -1 0 0 -1zm5 -3l1 0 0 1 -1 0 0 -1zm-2 0l1 0 0 1 -1 0 0 -1zm-3 0l1 0 0 1 -1 0 0 -1zm5 -3l1 0 0 2 -1 0 0 -2zm-5 0l1 0 0 2 -1 0 0 -2zm5 -3l1 0 0 2 -1 0 0 -2zm-2 0l1 0 0 2 -1 0 0 -2zm-3 0l1 0 0 2 -1 0 0 -2zm19 42l1 0 0 2 -1 0 0 -2zm-8 0l1 0 0 2 -1 0 0 -2zm13 -3l1 0 0 2 -1 0 0 -2zm-8 0l1 0 0 2 -1 0 0 -2zm5 -3l1 0 0 2 -1 0 0 -2zm-10 0l1 0 0 2 -1 0 0 -2zm10 -6l1 0 0 2 -1 0 0 -2zm-7 0l1 0 0 2 -1 0 0 -2zm10 -2l1 0 0 1 -1 0 0 -1zm-5 0l1 0 0 1 -1 0 0 -1zm-8 0l1 0 0 1 -1 0 0 -1zm13 -3l1 0 0 1 -1 0 0 -1zm-3 0l1 0 0 1 -1 0 0 -1zm-5 0l1 0 0 1 -1 0 0 -1zm-5 0l1 0 0 1 -1 0 0 -1zm10 -3l1 0 0 1 -1 0 0 -1zm-5 0l1 0 0 1 -1 0 0 -1zm-2 0l1 0 0 1 -1 0 0 -1zm10 -3l1 0 0 1 -1 0 0 -1zm-3 0l1 0 0 1 -1 0 0 -1zm-2 0l1 0 0 1 -1 0 0 -1zm-5 0l1 0 0 1 -1 0 0 -1zm-3 0l1 0 0 1 -1 0 0 -1zm13 -3l1 0 0 2 -1 0 0 -2zm-3 0l1 0 0 2 -1 0 0 -2zm-5 0l1 0 0 2 -1 0 0 -2zm-2 0l1 0 0 2 -1 0 0 -2zm-3 0l1 0 0 2 -1 0 0 -2zm13 -3l1 0 0 2 -1 0 0 -2zm-3 0l1 0 0 2 -1 0 0 -2zm-2 0l1 0 0 2 -1 0 0 -2zm-3 0l1 0 0 2 -1 0 0 -2zm-5 0l1 0 0 2 -1 0 0 -2zm13 -3l1 0 0 2 -1 0 0 -2zm-5 0l1 0 0 2 -1 0 0 -2zm-3 0l1 0 0 2 -1 0 0 -2zm-2 0l1 0 0 2 -1 0 0 -2zm-3 0l1 0 0 2 -1 0 0 -2zm35 35l1 0 0 1 -1 0 0 -1zm-7 0l1 0 0 1 -1 0 0 -1zm-5 0l1 0 0 1 -1 0 0 -1zm10 -3l1 0 0 1 -1 0 0 -1zm-8 0l1 0 0 1 -1 0 0 -1zm10 -3l1 0 0 2 -1 0 0 -2zm-7 0l1 0 0 2 -1 0 0 -2zm-5 0l1 0 0 2 -1 0 0 -2zm7 -3l1 0 0 2 -1 0 0 -2zm-7 0l1 0 0 2 -1 0 0 -2zm12 -3l1 0 0 2 -1 0 0 -2zm-7 0l1 0 0 2 -1 0 0 -2zm-5 0l1 0 0 2 -1 0 0 -2zm10 -3l1 0 0 2 -1 0 0 -2zm-5 0l1 0 0 2 -1 0 0 -2zm-3 0l1 0 0 2 -1 0 0 -2zm10 -3l1 0 0 2 -1 0 0 -2zm-12 0l1 0 0 2 -1 0 0 -2zm12 -3l1 0 0 2 -1 0 0 -2zm-2 0l1 0 0 2 -1 0 0 -2zm-5 0l1 0 0 2 -1 0 0 -2zm-5 0l1 0 0 2 -1 0 0 -2zm10 -3l1 0 0 2 -1 0 0 -2zm-3 0l1 0 0 2 -1 0 0 -2zm-2 0l1 0 0 2 -1 0 0 -2zm-3 0l1 0 0 2 -1 0 0 -2zm10 -2l1 0 0 1 -1 0 0 -1zm-10 0l1 0 0 1 -1 0 0 -1zm-2 0l1 0 0 1 -1 0 0 -1zm12 -3l1 0 0 1 -1 0 0 -1zm-2 0l1 0 0 1 -1 0 0 -1zm-3 0l1 0 0 1 -1 0 0 -1zm-2 0l1 0 0 1 -1 0 0 -1zm-3 0l1 0 0 1 -1 0 0 -1zm-2 0l1 0 0 1 -1 0 0 -1zm12 -3l1 0 0 1 -1 0 0 -1zm-5 0l1 0 0 1 -1 0 0 -1zm-2 0l1 0 0 1 -1 0 0 -1zm7 -3l1 0 0 1 -1 0 0 -1zm-2 0l1 0 0 1 -1 0 0 -1zm-3 0l1 0 0 1 -1 0 0 -1zm-2 0l1 0 0 1 -1 0 0 -1zm-3 0l1 0 0 1 -1 0 0 -1zm-2 0l1 0 0 1 -1 0 0 -1zm10 -3l1 0 0 2 -1 0 0 -2zm-3 0l1 0 0 2 -1 0 0 -2zm-2 0l1 0 0 2 -1 0 0 -2zm-3 0l1 0 0 2 -1 0 0 -2zm10 -3l1 0 0 2 -1 0 0 -2zm-5 0l1 0 0 2 -1 0 0 -2zm-2 0l1 0 0 2 -1 0 0 -2zm-3 0l1 0 0 2 -1 0 0 -2zm-2 0l1 0 0 2 -1 0 0 -2zm12 -3l1 0 0 2 -1 0 0 -2zm-2 0l1 0 0 2 -1 0 0 -2zm-3 0l1 0 0 2 -1 0 0 -2zm-2 0l1 0 0 2 -1 0 0 -2zm-3 0l1 0 0 2 -1 0 0 -2zm-2 0l1 0 0 2 -1 0 0 -2zm12 -3l1 0 0 2 -1 0 0 -2zm-2 0l1 0 0 2 -1 0 0 -2zm-5 0l1 0 0 2 -1 0 0 -2zm-5 0l1 0 0 2 -1 0 0 -2zm10 -3l1 0 0 2 -1 0 0 -2zm-3 0l1 0 0 2 -1 0 0 -2zm-2 0l1 0 0 2 -1 0 0 -2zm-3 0l1 0 0 2 -1 0 0 -2zm-2 0l1 0 0 2 -1 0 0 -2zm-86 49l1 0 0 1 -1 0 0 -1zm2 -3l1 0 0 1 -1 0 0 -1zm8 -3l1 0 0 1 -1 0 0 -1zm-13 0l1 0 0 1 -1 0 0 -1zm5 -3l1 0 0 2 -1 0 0 -2zm8 -3l1 0 0 2 -1 0 0 -2zm-13 0l1 0 0 2 -1 0 0 -2zm10 -3l1 0 0 2 -1 0 0 -2zm-7 0l1 0 0 2 -1 0 0 -2zm10 -3l1 0 0 2 -1 0 0 -2zm-5 0l1 0 0 2 -1 0 0 -2zm-3 0l1 0 0 2 -1 0 0 -2zm-5 0l1 0 0 2 -1 0 0 -2zm10 -3l1 0 0 2 -1 0 0 -2zm-5 0l1 0 0 2 -1 0 0 -2zm-5 0l1 0 0 2 -1 0 0 -2zm13 -3l1 0 0 2 -1 0 0 -2zm-5 0l1 0 0 2 -1 0 0 -2zm-3 0l1 0 0 2 -1 0 0 -2zm-2 0l1 0 0 2 -1 0 0 -2zm10 -3l1 0 0 2 -1 0 0 -2zm-5 0l1 0 0 2 -1 0 0 -2zm-3 0l1 0 0 2 -1 0 0 -2zm-5 0l1 0 0 2 -1 0 0 -2zm13 -2l1 0 0 1 -1 0 0 -1zm-3 0l1 0 0 1 -1 0 0 -1zm-5 0l1 0 0 1 -1 0 0 -1zm-2 0l1 0 0 1 -1 0 0 -1zm7 -3l1 0 0 1 -1 0 0 -1zm-2 0l1 0 0 1 -1 0 0 -1zm-5 0l1 0 0 1 -1 0 0 -1zm-3 0l1 0 0 1 -1 0 0 -1zm13 -3l1 0 0 1 -1 0 0 -1zm-3 0l1 0 0 1 -1 0 0 -1zm-5 0l1 0 0 1 -1 0 0 -1zm-2 0l1 0 0 1 -1 0 0 -1zm10 -3l1 0 0 1 -1 0 0 -1zm-5 0l1 0 0 1 -1 0 0 -1zm-3 0l1 0 0 1 -1 0 0 -1zm-5 0l1 0 0 1 -1 0 0 -1zm13 -3l1 0 0 2 -1 0 0 -2zm-5 0l1 0 0 2 -1 0 0 -2zm-3 0l1 0 0 2 -1 0 0 -2zm-5 0l1 0 0 2 -1 0 0 -2zm30 32l1 0 0 2 -1 0 0 -2zm-7 0l1 0 0 2 -1 0 0 -2zm-5 0l1 0 0 2 -1 0 0 -2zm10 -3l1 0 0 2 -1 0 0 -2zm-3 -3l2 0 0 2 -2 0 0 -2zm-7 0l1 0 0 2 -1 0 0 -2zm12 -3l1 0 0 2 -1 0 0 -2zm-2 0l1 0 0 2 -1 0 0 -2zm-3 -3l2 0 0 2 -2 0 0 -2zm-4 0l1 0 0 2 -1 0 0 -2zm-3 0l1 0 0 2 -1 0 0 -2zm7 -3l2 0 0 2 -2 0 0 -2zm5 -2l1 0 0 1 -1 0 0 -1zm-2 0l1 0 0 1 -1 0 0 -1zm-7 0l1 0 0 1 -1 0 0 -1zm4 -3l2 0 0 1 -2 0 0 -1zm3 -3l1 0 0 1 -1 0 0 -1zm-5 0l1 0 0 1 -1 0 0 -1zm-5 0l1 0 0 1 -1 0 0 -1zm12 -3l1 0 0 1 -1 0 0 -1zm-9 0l1 0 0 1 -1 0 0 -1zm-3 0l1 0 0 1 -1 0 0 -1zm7 -3l2 0 0 2 -2 0 0 -2zm-2 0l1 0 0 2 -1 0 0 -2zm-2 0l1 0 0 2 -1 0 0 -2zm9 -3l1 0 0 2 -1 0 0 -2zm-2 0l1 0 0 2 -1 0 0 -2zm-7 0l1 0 0 2 -1 0 0 -2zm-3 0l1 0 0 2 -1 0 0 -2zm5 -3l1 0 0 2 -1 0 0 -2zm-5 0l1 0 0 2 -1 0 0 -2zm12 -3l1 0 0 2 -1 0 0 -2zm-5 0l2 0 0 2 -2 0 0 -2zm-2 0l1 0 0 2 -1 0 0 -2zm-5 0l1 0 0 2 -1 0 0 -2zm12 -3l1 0 0 2 -1 0 0 -2zm-2 0l1 0 0 2 -1 0 0 -2zm-7 0l1 0 0 2 -1 0 0 -2zm9 -3l1 0 0 2 -1 0 0 -2zm-2 0l1 0 0 2 -1 0 0 -2zm-5 0l1 0 0 2 -1 0 0 -2zm-2 0l1 0 0 2 -1 0 0 -2zm-3 0l1 0 0 2 -1 0 0 -2zm12 -3l1 0 0 2 -1 0 0 -2zm-5 0l2 0 0 2 -2 0 0 -2zm-2 0l1 0 0 2 -1 0 0 -2zm-2 0l1 0 0 2 -1 0 0 -2zm-3 0l1 0 0 2 -1 0 0 -2zm12 -2l1 0 0 1 -1 0 0 -1zm-2 0l1 0 0 1 -1 0 0 -1zm-3 0l2 0 0 1 -2 0 0 -1zm-2 0l1 0 0 1 -1 0 0 -1zm-5 0l1 0 0 1 -1 0 0 -1zm12 -3l1 0 0 1 -1 0 0 -1zm-5 0l2 0 0 1 -2 0 0 -1zm-2 0l1 0 0 1 -1 0 0 -1zm-2 0l1 0 0 1 -1 0 0 -1zm-3 0l1 0 0 1 -1 0 0 -1zm27 35l1 0 0 2 -1 0 0 -2zm-4 0l1 0 0 2 -1 0 0 -2zm-5 0l1 0 0 2 -1 0 0 -2zm12 -3l1 0 0 2 -1 0 0 -2zm-5 0l1 0 0 2 -1 0 0 -2zm-5 0l1 0 0 2 -1 0 0 -2zm-2 0l1 0 0 2 -1 0 0 -2zm9 -3l1 0 0 2 -1 0 0 -2zm-2 -3l1 0 0 2 -1 0 0 -2zm-5 0l1 0 0 2 -1 0 0 -2zm-2 0l1 0 0 2 -1 0 0 -2zm12 -3l1 0 0 2 -1 0 0 -2zm-5 0l1 0 0 2 -1 0 0 -2zm-5 0l1 0 0 2 -1 0 0 -2zm7 -2l1 0 0 1 -1 0 0 -1zm-4 0l1 0 0 1 -1 0 0 -1zm-3 0l1 0 0 1 -1 0 0 -1zm-2 0l1 0 0 1 -1 0 0 -1zm12 -3l1 0 0 1 -1 0 0 -1zm-3 0l1 0 0 1 -1 0 0 -1zm-4 0l1 0 0 1 -1 0 0 -1zm-5 0l1 0 0 1 -1 0 0 -1zm12 -3l1 0 0 1 -1 0 0 -1zm-5 0l1 0 0 1 -1 0 0 -1zm-2 0l1 0 0 1 -1 0 0 -1zm-3 0l1 0 0 1 -1 0 0 -1zm7 -3l1 0 0 1 -1 0 0 -1zm-4 0l1 0 0 1 -1 0 0 -1zm-5 0l1 0 0 1 -1 0 0 -1zm12 -3l1 0 0 2 -1 0 0 -2zm-3 0l1 0 0 2 -1 0 0 -2zm-2 0l1 0 0 2 -1 0 0 -2zm-2 0l1 0 0 2 -1 0 0 -2zm-3 0l1 0 0 2 -1 0 0 -2zm-2 0l1 0 0 2 -1 0 0 -2zm7 -3l1 0 0 2 -1 0 0 -2zm-2 0l1 0 0 2 -1 0 0 -2zm-3 0l1 0 0 2 -1 0 0 -2zm-2 0l1 0 0 2 -1 0 0 -2zm12 -3l1 0 0 2 -1 0 0 -2zm-3 0l1 0 0 2 -1 0 0 -2zm-2 0l1 0 0 2 -1 0 0 -2zm-5 0l1 0 0 2 -1 0 0 -2zm10 -3l1 0 0 2 -1 0 0 -2zm-5 0l1 0 0 2 -1 0 0 -2zm-2 0l1 0 0 2 -1 0 0 -2zm-3 0l1 0 0 2 -1 0 0 -2zm-2 0l1 0 0 2 -1 0 0 -2zm9 -3l1 0 0 2 -1 0 0 -2zm-2 0l1 0 0 2 -1 0 0 -2zm-2 0l1 0 0 2 -1 0 0 -2zm-5 0l1 0 0 2 -1 0 0 -2zm12 -3l1 0 0 2 -1 0 0 -2zm-3 0l1 0 0 2 -1 0 0 -2zm-4 0l1 0 0 2 -1 0 0 -2zm-3 0l1 0 0 2 -1 0 0 -2zm-2 0l1 0 0 2 -1 0 0 -2zm12 -3l1 0 0 2 -1 0 0 -2zm-3 0l1 0 0 2 -1 0 0 -2zm-4 0l1 0 0 2 -1 0 0 -2zm-5 0l1 0 0 2 -1 0 0 -2zm12 -2l1 0 0 1 -1 0 0 -1zm-3 0l1 0 0 1 -1 0 0 -1zm-2 0l1 0 0 1 -1 0 0 -1zm-2 0l1 0 0 1 -1 0 0 -1zm-3 0l1 0 0 1 -1 0 0 -1zm-2 0l1 0 0 1 -1 0 0 -1zm12 -3l1 0 0 1 -1 0 0 -1zm-5 0l1 0 0 1 -1 0 0 -1zm-2 0l1 0 0 1 -1 0 0 -1zm-5 0l1 0 0 1 -1 0 0 -1zm12 -3l1 0 0 1 -1 0 0 -1zm-3 0l1 0 0 1 -1 0 0 -1zm-2 0l1 0 0 1 -1 0 0 -1zm-2 0l1 0 0 1 -1 0 0 -1zm-3 0l1 0 0 1 -1 0 0 -1zm-2 0l1 0 0 1 -1 0 0 -1zm-105 73l-1 0 0 2 1 0 0 -2zm7 0l-1 0 0 2 1 0 0 -2zm-2 -3l-1 0 0 2 1 0 0 -2zm-5 -3l-1 0 0 2 1 0 0 -2zm12 0l-1 0 0 2 1 0 0 -2zm-12 -6l-1 0 0 1 1 0 0 -1zm7 0l-1 0 0 1 1 0 0 -1zm5 0l-1 0 0 1 1 0 0 -1zm-7 -3l-1 0 0 1 1 0 0 -1zm7 0l-1 0 0 1 1 0 0 -1zm-12 -3l-1 0 0 1 1 0 0 -1zm10 0l-1 0 0 1 1 0 0 -1zm46 22l-1 0 0 2 1 0 0 -2zm10 0l-2 0 0 2 2 0 0 -2zm-13 -3l-1 0 0 2 1 0 0 -2zm5 0l-1 0 0 2 1 0 0 -2zm5 0l-1 0 0 2 1 0 0 -2zm3 -3l-2 0 0 2 2 0 0 -2zm-13 -3l-1 0 0 2 1 0 0 -2zm8 0l-1 0 0 2 1 0 0 -2zm-5 -2l-1 0 0 1 1 0 0 -1zm7 0l-1 0 0 1 1 0 0 -1zm3 0l-2 0 0 1 2 0 0 -1zm-10 -3l-1 0 0 1 1 0 0 -1zm2 0l-1 0 0 1 1 0 0 -1zm3 0l-1 0 0 1 1 0 0 -1zm2 0l-1 0 0 1 1 0 0 -1zm-10 -3l-1 0 0 1 1 0 0 -1zm3 0l-1 0 0 1 1 0 0 -1zm5 0l-1 0 0 1 1 0 0 -1zm2 0l-1 0 0 1 1 0 0 -1zm3 0l-2 0 0 1 2 0 0 -1zm-132 18l-1 0 0 2 1 0 0 -2zm8 0l-1 0 0 2 1 0 0 -2zm-12 -3l-2 0 0 2 2 0 0 -2zm7 0l-1 0 0 2 1 0 0 -2zm-5 -2l-1 0 0 1 1 0 0 -1zm10 0l-1 0 0 1 1 0 0 -1zm-12 -3l-2 0 0 1 2 0 0 -1zm12 0l-1 0 0 1 1 0 0 -1zm-10 -3l-1 0 0 1 1 0 0 -1zm5 0l-1 0 0 1 1 0 0 -1zm2 0l-1 0 0 1 1 0 0 -1zm-9 -3l-2 0 0 2 2 0 0 -2zm4 0l-1 0 0 2 1 0 0 -2zm3 0l-1 0 0 2 1 0 0 -2zm5 0l-1 0 0 2 1 0 0 -2zm-10 -3l-1 0 0 2 1 0 0 -2zm2 0l-1 0 0 2 1 0 0 -2zm5 0l-1 0 0 2 1 0 0 -2zm3 0l-1 0 0 2 1 0 0 -2zm-12 -3l-2 0 0 2 2 0 0 -2zm2 0l-1 0 0 2 1 0 0 -2zm2 0l-1 0 0 2 1 0 0 -2zm3 0l-1 0 0 2 1 0 0 -2zm2 0l-1 0 0 2 1 0 0 -2zm3 0l-1 0 0 2 1 0 0 -2zm-12 -3l-2 0 0 2 2 0 0 -2zm2 0l-1 0 0 2 1 0 0 -2zm5 0l-1 0 0 2 1 0 0 -2zm2 0l-1 0 0 2 1 0 0 -2zm3 0l-1 0 0 2 1 0 0 -2zm46 23l-1 0 0 1 1 0 0 -1zm5 0l-1 0 0 1 1 0 0 -1zm-5 -3l-1 0 0 1 1 0 0 -1zm2 -3l-1 0 0 1 1 0 0 -1zm-2 -3l-1 0 0 1 1 0 0 -1zm2 -3l-1 0 0 2 1 0 0 -2zm3 0l-1 0 0 2 1 0 0 -2zm-5 -3l-1 0 0 2 1 0 0 -2zm5 0l-1 0 0 2 1 0 0 -2zm-3 -3l-1 0 0 2 1 0 0 -2zm-2 -3l-1 0 0 2 1 0 0 -2zm2 0l-1 0 0 2 1 0 0 -2zm3 0l-1 0 0 2 1 0 0 -2zm-3 -3l-1 0 0 2 1 0 0 -2zm3 0l-1 0 0 2 1 0 0 -2zm-5 -3l-1 0 0 2 1 0 0 -2zm5 0l-1 0 0 2 1 0 0 -2zm-5 -3l-1 0 0 2 1 0 0 -2zm2 0l-1 0 0 2 1 0 0 -2zm3 0l-1 0 0 2 1 0 0 -2zm-5 -2l-1 0 0 1 1 0 0 -1zm2 0l-1 0 0 1 1 0 0 -1zm3 0l-1 0 0 1 1 0 0 -1zm-3 -3l-1 0 0 1 1 0 0 -1zm3 0l-1 0 0 1 1 0 0 -1zm-5 -3l-1 0 0 1 1 0 0 -1zm2 0l-1 0 0 1 1 0 0 -1zm3 0l-1 0 0 1 1 0 0 -1zm-5 -3l-1 0 0 2 1 0 0 -2zm5 0l-1 0 0 2 1 0 0 -2zm-5 -3l-1 0 0 2 1 0 0 -2zm2 0l-1 0 0 2 1 0 0 -2zm3 0l-1 0 0 2 1 0 0 -2zm-19 42l-1 0 0 2 1 0 0 -2zm8 0l-1 0 0 2 1 0 0 -2zm-13 -3l-1 0 0 2 1 0 0 -2zm8 0l-1 0 0 2 1 0 0 -2zm-5 -3l-1 0 0 2 1 0 0 -2zm10 0l-1 0 0 2 1 0 0 -2zm-10 -6l-1 0 0 2 1 0 0 -2zm7 0l-1 0 0 2 1 0 0 -2zm-10 -2l-1 0 0 1 1 0 0 -1zm5 0l-1 0 0 1 1 0 0 -1zm8 0l-1 0 0 1 1 0 0 -1zm-13 -3l-1 0 0 1 1 0 0 -1zm3 0l-1 0 0 1 1 0 0 -1zm5 0l-1 0 0 1 1 0 0 -1zm5 0l-1 0 0 1 1 0 0 -1zm-10 -3l-1 0 0 1 1 0 0 -1zm5 0l-1 0 0 1 1 0 0 -1zm2 0l-1 0 0 1 1 0 0 -1zm-10 -3l-1 0 0 1 1 0 0 -1zm3 0l-1 0 0 1 1 0 0 -1zm2 0l-1 0 0 1 1 0 0 -1zm5 0l-1 0 0 1 1 0 0 -1zm3 0l-1 0 0 1 1 0 0 -1zm-13 -3l-1 0 0 2 1 0 0 -2zm3 0l-1 0 0 2 1 0 0 -2zm5 0l-1 0 0 2 1 0 0 -2zm2 0l-1 0 0 2 1 0 0 -2zm3 0l-1 0 0 2 1 0 0 -2zm-13 -3l-1 0 0 2 1 0 0 -2zm3 0l-1 0 0 2 1 0 0 -2zm2 0l-1 0 0 2 1 0 0 -2zm3 0l-1 0 0 2 1 0 0 -2zm5 0l-1 0 0 2 1 0 0 -2zm-13 -3l-1 0 0 2 1 0 0 -2zm5 0l-1 0 0 2 1 0 0 -2zm3 0l-1 0 0 2 1 0 0 -2zm2 0l-1 0 0 2 1 0 0 -2zm3 0l-1 0 0 2 1 0 0 -2zm-35 35l-1 0 0 1 1 0 0 -1zm7 0l-1 0 0 1 1 0 0 -1zm5 0l-1 0 0 1 1 0 0 -1zm-9 -3l-1 0 0 1 1 0 0 -1zm7 0l-1 0 0 1 1 0 0 -1zm-10 -3l-1 0 0 2 1 0 0 -2zm7 0l-1 0 0 2 1 0 0 -2zm5 0l-1 0 0 2 1 0 0 -2zm-7 -3l-1 0 0 2 1 0 0 -2zm7 0l-1 0 0 2 1 0 0 -2zm-12 -3l-1 0 0 2 1 0 0 -2zm7 0l-1 0 0 2 1 0 0 -2zm5 0l-1 0 0 2 1 0 0 -2zm-9 -3l-1 0 0 2 1 0 0 -2zm4 0l-1 0 0 2 1 0 0 -2zm3 0l-1 0 0 2 1 0 0 -2zm-10 -3l-1 0 0 2 1 0 0 -2zm12 0l-1 0 0 2 1 0 0 -2zm-12 -3l-1 0 0 2 1 0 0 -2zm3 0l-1 0 0 2 1 0 0 -2zm4 0l-1 0 0 2 1 0 0 -2zm5 0l-1 0 0 2 1 0 0 -2zm-9 -3l-1 0 0 2 1 0 0 -2zm2 0l-1 0 0 2 1 0 0 -2zm2 0l-1 0 0 2 1 0 0 -2zm3 0l-1 0 0 2 1 0 0 -2zm-10 -2l-1 0 0 1 1 0 0 -1zm10 0l-1 0 0 1 1 0 0 -1zm2 0l-1 0 0 1 1 0 0 -1zm-12 -3l-1 0 0 1 1 0 0 -1zm3 0l-1 0 0 1 1 0 0 -1zm2 0l-1 0 0 1 1 0 0 -1zm2 0l-1 0 0 1 1 0 0 -1zm3 0l-1 0 0 1 1 0 0 -1zm2 0l-1 0 0 1 1 0 0 -1zm-12 -3l-1 0 0 1 1 0 0 -1zm5 0l-1 0 0 1 1 0 0 -1zm2 0l-1 0 0 1 1 0 0 -1zm-7 -3l-1 0 0 1 1 0 0 -1zm3 0l-1 0 0 1 1 0 0 -1zm2 0l-1 0 0 1 1 0 0 -1zm2 0l-1 0 0 1 1 0 0 -1zm3 0l-1 0 0 1 1 0 0 -1zm2 0l-1 0 0 1 1 0 0 -1zm-9 -3l-1 0 0 2 1 0 0 -2zm2 0l-1 0 0 2 1 0 0 -2zm2 0l-1 0 0 2 1 0 0 -2zm3 0l-1 0 0 2 1 0 0 -2zm-10 -3l-1 0 0 2 1 0 0 -2zm5 0l-1 0 0 2 1 0 0 -2zm2 0l-1 0 0 2 1 0 0 -2zm3 0l-1 0 0 2 1 0 0 -2zm2 0l-1 0 0 2 1 0 0 -2zm-12 -3l-1 0 0 2 1 0 0 -2zm3 0l-1 0 0 2 1 0 0 -2zm2 0l-1 0 0 2 1 0 0 -2zm2 0l-1 0 0 2 1 0 0 -2zm3 0l-1 0 0 2 1 0 0 -2zm2 0l-1 0 0 2 1 0 0 -2zm-12 -3l-1 0 0 2 1 0 0 -2zm3 0l-1 0 0 2 1 0 0 -2zm4 0l-1 0 0 2 1 0 0 -2zm5 0l-1 0 0 2 1 0 0 -2zm-9 -3l-1 0 0 2 1 0 0 -2zm2 0l-1 0 0 2 1 0 0 -2zm2 0l-1 0 0 2 1 0 0 -2zm3 0l-1 0 0 2 1 0 0 -2zm2 0l-1 0 0 2 1 0 0 -2zm86 49l-1 0 0 1 1 0 0 -1zm-2 -3l-1 0 0 1 1 0 0 -1zm-7 -3l-1 0 0 1 1 0 0 -1zm12 0l-1 0 0 1 1 0 0 -1zm-5 -3l-1 0 0 2 1 0 0 -2zm-7 -3l-1 0 0 2 1 0 0 -2zm12 0l-1 0 0 2 1 0 0 -2zm-10 -3l-1 0 0 2 1 0 0 -2zm7 0l-1 0 0 2 1 0 0 -2zm-9 -3l-1 0 0 2 1 0 0 -2zm4 0l-1 0 0 2 1 0 0 -2zm3 0l-1 0 0 2 1 0 0 -2zm5 0l-1 0 0 2 1 0 0 -2zm-10 -3l-1 0 0 2 1 0 0 -2zm5 0l-1 0 0 2 1 0 0 -2zm5 0l-1 0 0 2 1 0 0 -2zm-12 -3l-1 0 0 2 1 0 0 -2zm4 0l-1 0 0 2 1 0 0 -2zm3 0l-1 0 0 2 1 0 0 -2zm2 0l-1 0 0 2 1 0 0 -2zm-9 -3l-1 0 0 2 1 0 0 -2zm4 0l-1 0 0 2 1 0 0 -2zm3 0l-1 0 0 2 1 0 0 -2zm5 0l-1 0 0 2 1 0 0 -2zm-12 -2l-1 0 0 1 1 0 0 -1zm2 0l-1 0 0 1 1 0 0 -1zm5 0l-1 0 0 1 1 0 0 -1zm2 0l-1 0 0 1 1 0 0 -1zm-7 -3l-1 0 0 1 1 0 0 -1zm2 0l-1 0 0 1 1 0 0 -1zm5 0l-1 0 0 1 1 0 0 -1zm3 0l-1 0 0 1 1 0 0 -1zm-12 -3l-1 0 0 1 1 0 0 -1zm2 0l-1 0 0 1 1 0 0 -1zm5 0l-1 0 0 1 1 0 0 -1zm2 0l-1 0 0 1 1 0 0 -1zm-9 -3l-1 0 0 1 1 0 0 -1zm4 0l-1 0 0 1 1 0 0 -1zm3 0l-1 0 0 1 1 0 0 -1zm5 0l-1 0 0 1 1 0 0 -1zm-12 -3l-1 0 0 2 1 0 0 -2zm4 0l-1 0 0 2 1 0 0 -2zm3 0l-1 0 0 2 1 0 0 -2zm5 0l-1 0 0 2 1 0 0 -2zm-30 32l-1 0 0 2 1 0 0 -2zm7 0l-1 0 0 2 1 0 0 -2zm5 0l-1 0 0 2 1 0 0 -2zm-10 -3l-1 0 0 2 1 0 0 -2zm3 -3l-1 0 0 2 1 0 0 -2zm7 0l-1 0 0 2 1 0 0 -2zm-12 -3l-1 0 0 2 1 0 0 -2zm2 0l-1 0 0 2 1 0 0 -2zm3 -3l-1 0 0 2 1 0 0 -2zm4 0l-1 0 0 2 1 0 0 -2zm3 0l-1 0 0 2 1 0 0 -2zm-7 -3l-1 0 0 2 1 0 0 -2zm-5 -2l-1 0 0 1 1 0 0 -1zm2 0l-1 0 0 1 1 0 0 -1zm7 0l-1 0 0 1 1 0 0 -1zm-4 -3l-1 0 0 1 1 0 0 -1zm-3 -3l-1 0 0 1 1 0 0 -1zm5 0l-1 0 0 1 1 0 0 -1zm5 0l-1 0 0 1 1 0 0 -1zm-12 -3l-1 0 0 1 1 0 0 -1zm9 0l-1 0 0 1 1 0 0 -1zm3 0l-1 0 0 1 1 0 0 -1zm-7 -3l-1 0 0 2 1 0 0 -2zm2 0l-1 0 0 2 1 0 0 -2zm2 0l-1 0 0 2 1 0 0 -2zm-9 -3l-1 0 0 2 1 0 0 -2zm2 0l-1 0 0 2 1 0 0 -2zm7 0l-1 0 0 2 1 0 0 -2zm3 0l-1 0 0 2 1 0 0 -2zm-5 -3l-1 0 0 2 1 0 0 -2zm5 0l-1 0 0 2 1 0 0 -2zm-12 -3l-1 0 0 2 1 0 0 -2zm5 0l-1 0 0 2 1 0 0 -2zm2 0l-1 0 0 2 1 0 0 -2zm5 0l-1 0 0 2 1 0 0 -2zm-12 -3l-1 0 0 2 1 0 0 -2zm2 0l-1 0 0 2 1 0 0 -2zm7 0l-1 0 0 2 1 0 0 -2zm-9 -3l-1 0 0 2 1 0 0 -2zm2 0l-1 0 0 2 1 0 0 -2zm5 0l-1 0 0 2 1 0 0 -2zm2 0l-1 0 0 2 1 0 0 -2zm3 0l-1 0 0 2 1 0 0 -2zm-12 -3l-1 0 0 2 1 0 0 -2zm5 0l-1 0 0 2 1 0 0 -2zm2 0l-1 0 0 2 1 0 0 -2zm2 0l-1 0 0 2 1 0 0 -2zm3 0l-1 0 0 2 1 0 0 -2zm-12 -2l-1 0 0 1 1 0 0 -1zm2 0l-1 0 0 1 1 0 0 -1zm3 0l-1 0 0 1 1 0 0 -1zm2 0l-1 0 0 1 1 0 0 -1zm5 0l-1 0 0 1 1 0 0 -1zm-12 -3l-1 0 0 1 1 0 0 -1zm5 0l-1 0 0 1 1 0 0 -1zm2 0l-1 0 0 1 1 0 0 -1zm2 0l-1 0 0 1 1 0 0 -1zm3 0l-1 0 0 1 1 0 0 -1zm-27 35l-1 0 0 2 1 0 0 -2zm4 0l-1 0 0 2 1 0 0 -2zm5 0l-1 0 0 2 1 0 0 -2zm-12 -3l-1 0 0 2 1 0 0 -2zm5 0l-1 0 0 2 1 0 0 -2zm5 0l-1 0 0 2 1 0 0 -2zm2 0l-1 0 0 2 1 0 0 -2zm-9 -3l-1 0 0 2 1 0 0 -2zm2 -3l-1 0 0 2 1 0 0 -2zm5 0l-1 0 0 2 1 0 0 -2zm2 0l-1 0 0 2 1 0 0 -2zm-12 -3l-1 0 0 2 1 0 0 -2zm5 0l-1 0 0 2 1 0 0 -2zm5 0l-1 0 0 2 1 0 0 -2zm-7 -2l-1 0 0 1 1 0 0 -1zm4 0l-1 0 0 1 1 0 0 -1zm3 0l-1 0 0 1 1 0 0 -1zm2 0l-1 0 0 1 1 0 0 -1zm-12 -3l-1 0 0 1 1 0 0 -1zm3 0l-1 0 0 1 1 0 0 -1zm4 0l-1 0 0 1 1 0 0 -1zm5 0l-1 0 0 1 1 0 0 -1zm-12 -3l-1 0 0 1 1 0 0 -1zm5 0l-1 0 0 1 1 0 0 -1zm2 0l-1 0 0 1 1 0 0 -1zm3 0l-1 0 0 1 1 0 0 -1zm-7 -3l-1 0 0 1 1 0 0 -1zm4 0l-1 0 0 1 1 0 0 -1zm5 0l-1 0 0 1 1 0 0 -1zm-12 -3l-1 0 0 2 1 0 0 -2zm3 0l-1 0 0 2 1 0 0 -2zm2 0l-1 0 0 2 1 0 0 -2zm2 0l-1 0 0 2 1 0 0 -2zm3 0l-1 0 0 2 1 0 0 -2zm2 0l-1 0 0 2 1 0 0 -2zm-7 -3l-1 0 0 2 1 0 0 -2zm2 0l-1 0 0 2 1 0 0 -2zm3 0l-1 0 0 2 1 0 0 -2zm2 0l-1 0 0 2 1 0 0 -2zm-12 -3l-1 0 0 2 1 0 0 -2zm3 0l-1 0 0 2 1 0 0 -2zm2 0l-1 0 0 2 1 0 0 -2zm5 0l-1 0 0 2 1 0 0 -2zm-10 -3l-1 0 0 2 1 0 0 -2zm5 0l-1 0 0 2 1 0 0 -2zm2 0l-1 0 0 2 1 0 0 -2zm3 0l-1 0 0 2 1 0 0 -2zm2 0l-1 0 0 2 1 0 0 -2zm-9 -3l-1 0 0 2 1 0 0 -2zm2 0l-1 0 0 2 1 0 0 -2zm2 0l-1 0 0 2 1 0 0 -2zm5 0l-1 0 0 2 1 0 0 -2zm-12 -3l-1 0 0 2 1 0 0 -2zm3 0l-1 0 0 2 1 0 0 -2zm4 0l-1 0 0 2 1 0 0 -2zm3 0l-1 0 0 2 1 0 0 -2zm2 0l-1 0 0 2 1 0 0 -2zm-12 -3l-1 0 0 2 1 0 0 -2zm3 0l-1 0 0 2 1 0 0 -2zm4 0l-1 0 0 2 1 0 0 -2zm5 0l-1 0 0 2 1 0 0 -2zm-12 -2l-1 0 0 1 1 0 0 -1zm3 0l-1 0 0 1 1 0 0 -1zm2 0l-1 0 0 1 1 0 0 -1zm2 0l-1 0 0 1 1 0 0 -1zm3 0l-1 0 0 1 1 0 0 -1zm2 0l-1 0 0 1 1 0 0 -1zm-12 -3l-1 0 0 1 1 0 0 -1zm5 0l-1 0 0 1 1 0 0 -1zm2 0l-1 0 0 1 1 0 0 -1zm5 0l-1 0 0 1 1 0 0 -1zm-12 -3l-1 0 0 1 1 0 0 -1zm3 0l-1 0 0 1 1 0 0 -1zm2 0l-1 0 0 1 1 0 0 -1zm2 0l-1 0 0 1 1 0 0 -1zm3 0l-1 0 0 1 1 0 0 -1zm2 0l-1 0 0 1 1 0 0 -1z"/><path class="fil0" d="M49 171l0 1 -2 0 0 -1 2 0zm-9 -3l0 -2 1 0 0 1 1 0 0 -1 4 0 0 1 1 0 0 -1 2 0 0 1 1 0 0 -1 1 0 0 1 1 0 0 -1 2 0 0 1 1 0 0 -1 14 0 0 2 -3 0 0 -1 -1 0 0 1 -2 0 0 -1 -1 0 0 1 -22 0zm0 -5l0 -1 20 0 0 1 1 0 0 -1 1 0 0 1 1 0 0 -1 2 0 0 1 1 0 0 -1 3 0 0 1 -14 0 0 0 -1 0 0 0 -4 0 0 0 -1 0 0 0 -2 0 0 0 -1 0 0 0 -1 0 0 0 -1 0 0 0 -2 0 0 0 -1 0 0 0 -1 0zm0 -4l0 -2 1 0 0 2 1 0 0 -2 2 0 0 2 1 0 0 -2 1 0 0 2 1 0 0 -2 4 0 0 2 1 0 0 -2 2 0 0 2 1 0 0 -2 7 0 1 0 2 0 1 0 3 0 0 2 -3 0 0 -1 -1 0 0 1 -4 0 0 -1 -1 0 0 1 -20 0zm0 -5l0 -1 1 0 0 0 1 0 0 0 2 0 0 0 1 0 0 0 4 0 0 0 1 0 0 0 4 0 0 0 1 0 0 0 14 0 0 1 -17 0 0 0 -1 0 0 0 -1 0 0 0 -1 0 0 0 -4 0 0 0 -1 0 0 0 -4 0zm0 -4l0 -2 20 0 0 0 1 0 0 0 4 0 0 0 1 0 0 0 3 0 0 2 -6 0 0 0 -1 0 0 0 -22 0zm0 -5l0 -2 29 0 0 2 -3 0 0 -1 -1 0 0 1 -2 0 0 -1 -1 0 0 1 -10 0 0 0 -1 0 0 0 -6 0 0 0 -1 0 0 0 -4 0zm0 -4l0 -2 22 0 0 1 1 0 0 -1 6 0 0 2 -8 0 0 0 -1 0 0 0 -5 0 0 -1 -1 0 0 1 -9 0 0 -1 -1 0 0 1 -4 0zm0 -4l0 -3 6 0 0 1 1 0 0 -1 7 0 0 1 1 0 0 -1 14 0 0 3 -8 0 0 -2 -1 0 0 2 -20 0zm-1 -3l0 3 -21 0 0 -3 21 0zm-23 0l0 3 -16 0 0 -3 16 0zm-16 -2l0 -1 0 -2 292 0 0 3 -12 0 0 -1 -1 0 0 1 -2 0 0 -1 -1 0 0 1 -5 0 0 -1 -1 0 0 1 -13 0 0 -1 -1 0 0 1 -7 0 0 -1 -1 0 0 1 -4 0 0 -1 -1 0 0 1 -6 0 0 -1 -1 0 0 1 -4 0 0 -1 -1 0 0 1 -12 0 0 -1 -1 0 0 1 -6 0 0 -1 -1 0 0 1 -159 0 0 -1 -1 0 0 1 -6 0 0 -1 -1 0 0 1 -12 0 0 -1 -1 0 0 1 -4 0 0 -1 -1 0 0 1 -6 0 0 -1 -1 0 0 1 -4 0 0 -1 -1 0 0 1 -7 0 0 -1 -1 0 0 1 -6 0zm0 -4l0 -2 0 0 292 0 0 2 -292 0zm292 6l0 3 -89 0 0 -2 -1 0 0 2 -8 0 0 -3 14 0 0 1 1 0 0 -1 7 0 0 1 1 0 0 -1 75 0zm-100 0l0 3 -33 0 0 -3 33 0zm-35 0l0 3 -9 0 0 -2 -1 0 0 2 -11 0 0 -1 -1 0 0 1 -4 0 0 -1 -1 0 0 1 -4 0 0 -1 -1 0 0 1 -9 0 0 -2 -1 0 0 2 -9 0 0 -3 22 0 0 0 1 0 0 0 8 0 0 0 2 0 0 0 18 0zm-53 0l0 3 -33 0 0 -3 33 0zm-65 5l0 2 -7 0 0 -1 -1 0 0 1 -6 0 0 -1 -1 0 0 1 -6 0 0 -2 1 0 0 0 1 0 0 0 6 0 0 0 1 0 0 0 4 0 0 0 1 0 0 0 7 0zm-23 0l0 2 -1 0 0 -1 -1 0 0 1 -11 0 0 -1 -2 0 0 1 -1 0 0 -2 4 0 0 0 1 0 0 0 9 0 0 0 1 0 0 0 1 0zm276 0l0 2 -18 0 0 -1 -1 0 0 1 -5 0 0 -1 -1 0 0 1 -2 0 0 -1 -2 0 0 1 -1 0 0 -1 0 0 -1 0 0 1 -12 0 0 -1 -1 0 0 1 -9 0 0 -1 -1 0 0 1 -6 0 0 -1 -1 0 0 1 -7 0 0 0 -1 0 0 0 -4 0 0 -1 -1 0 0 1 -9 0 0 -1 -1 0 0 1 -5 0 0 0 -1 0 0 0 -8 0 0 -2 6 0 0 1 1 0 0 -1 30 0 0 0 1 0 0 0 4 0 0 0 1 0 0 0 6 0 0 0 1 0 0 0 4 0 0 0 1 0 0 0 9 0 0 0 1 0 0 0 11 0 0 0 1 0 0 0 5 0 0 0 1 0 0 0 2 0 0 0 1 0 0 0 2 0 0 0 1 0 0 0 9 0zm-100 0l0 2 -6 0 0 -1 -1 0 0 1 -12 0 0 0 -1 0 0 0 -6 0 0 0 -1 0 0 0 -4 0 0 0 -1 0 0 0 -1 0 0 -2 33 0zm-35 0l0 2 -9 0 0 0 -1 0 0 0 -6 0 0 -2 1 0 0 1 1 0 0 -1 12 0 0 1 1 0 0 -1 1 0zm-17 0l0 2 -16 0 0 -2 13 0 0 1 2 0 0 -1 1 0zm-18 0l0 2 -6 0 0 0 -1 0 0 0 -9 0 0 -2 2 0 0 1 1 0 0 -1 11 0 0 1 1 0 0 -1 1 0zm-18 0l0 2 -1 0 0 0 -1 0 0 0 -4 0 0 0 -1 0 0 0 -6 0 0 0 -1 0 0 0 -12 0 0 -1 -1 0 0 1 -6 0 0 -2 33 0zm-65 4l0 2 -21 0 0 -2 1 0 0 1 1 0 0 -1 6 0 0 1 1 0 0 -1 4 0 0 1 1 0 0 -1 7 0zm-23 0l0 2 -16 0 0 -2 4 0 0 2 1 0 0 -2 4 0 0 2 1 0 0 -2 1 0 0 2 1 0 0 -2 4 0zm276 0l0 2 -27 0 0 -2 8 0 0 2 1 0 0 -2 2 0 0 2 1 0 0 -2 5 0 0 2 1 0 0 -2 9 0zm-29 0l0 2 -16 0 0 -2 4 0 0 2 1 0 0 -2 1 0 0 2 1 0 0 -2 4 0 0 2 1 0 0 -2 4 0zm-18 0l0 2 -21 0 0 -2 7 0 0 1 1 0 0 -1 4 0 0 1 1 0 0 -1 6 0 0 1 1 0 0 -1 1 0zm-22 0l0 2 -4 0 0 0 -1 0 0 0 -6 0 0 0 -1 0 0 0 -10 0 0 -1 -1 0 0 1 -2 0 0 -1 -1 0 0 1 -3 0 0 -2 29 0zm-31 0l0 2 -33 0 0 -2 19 0 0 1 1 0 0 -1 11 0 0 1 1 0 0 -1 1 0zm-35 0l0 2 -16 0 0 -2 16 0zm-17 0l0 2 -1 0 0 -1 -2 0 0 1 -1 0 0 -1 -1 0 0 1 -6 0 0 -1 -1 0 0 1 -4 0 0 -2 16 0zm-18 0l0 2 -16 0 0 -2 16 0zm-18 0l0 2 -33 0 0 -2 1 0 0 1 1 0 0 -1 11 0 0 1 1 0 0 -1 19 0zm-70 5l0 2 -2 0 0 -1 -1 0 0 1 -11 0 0 -1 -1 0 0 1 -1 0 0 -2 16 0zm-18 0l0 2 -1 0 0 -1 -1 0 0 1 -2 0 0 -1 -1 0 0 1 -4 0 0 -1 -1 0 0 1 -1 0 0 -1 -1 0 0 1 -4 0 0 -2 16 0zm276 0l0 2 -12 0 0 -1 -1 0 0 1 -2 0 0 -1 -1 0 0 1 -5 0 0 -1 -1 0 0 1 -5 0 0 -2 27 0zm-29 0l0 2 -4 0 0 -1 -1 0 0 1 -1 0 0 -1 -1 0 0 1 -4 0 0 -1 -1 0 0 1 -2 0 0 -1 -1 0 0 1 -1 0 0 -2 16 0zm-18 0l0 2 -1 0 0 -1 -1 0 0 1 -11 0 0 -1 -1 0 0 1 -1 0 0 -2 15 0zm-22 0l0 2 -22 0 0 0 -1 0 0 0 -6 0 0 -2 3 0 0 0 1 0 0 0 4 0 0 0 1 0 0 0 20 0zm-31 0l0 2 -1 0 0 -1 -1 0 0 1 -6 0 0 -1 -1 0 0 1 -4 0 0 -1 -1 0 0 1 -5 0 0 0 -1 0 0 0 -1 0 0 0 -1 0 0 0 -11 0 0 -2 1 0 0 0 1 0 0 0 6 0 0 0 2 0 0 0 23 0zm-35 0l0 2 -1 0 0 0 -1 0 0 0 -4 0 0 0 -1 0 0 0 -2 0 0 0 -1 0 0 0 -4 0 0 0 -1 0 0 0 -1 0 0 -2 4 0 0 0 1 0 0 0 6 0 0 0 1 0 0 0 4 0zm-17 0l0 2 -16 0 0 -2 4 0 0 1 1 0 0 -1 1 0 0 1 1 0 0 -1 2 0 0 1 1 0 0 -1 1 0 0 1 1 0 0 -1 4 0zm-18 0l0 2 -1 0 0 0 -1 0 0 0 -4 0 0 0 -1 0 0 0 -2 0 0 0 -1 0 0 0 -3 0 0 0 -1 0 0 0 -2 0 0 -2 4 0 0 0 1 0 0 0 6 0 0 0 1 0 0 0 4 0zm-18 0l0 2 -11 0 0 0 -1 0 0 0 -1 0 0 0 -1 0 0 0 -5 0 0 -1 -1 0 0 1 -4 0 0 -1 -1 0 0 1 -6 0 0 -1 -1 0 0 1 -1 0 0 -2 24 0 0 0 1 0 0 0 6 0 0 0 1 0 0 0 1 0zm-70 5l0 1 -4 0 0 0 -1 0 0 0 -2 0 0 0 -1 0 0 0 -1 0 0 0 -1 0 0 0 -1 0 0 0 -1 0 0 0 -4 0 0 -1 1 0 0 0 1 0 0 0 2 0 0 0 1 0 0 0 3 0 0 0 1 0 0 0 4 0 0 0 1 0 0 0 2 0zm-18 0l0 1 -16 0 0 -1 1 0 0 0 2 0 0 0 1 0 0 0 1 0 0 0 1 0 0 0 1 0 0 0 2 0 0 0 1 0 0 0 1 0 0 0 1 0 0 0 2 0 0 0 1 0 0 0 1 0zm276 0l0 1 -27 0 0 -1 11 0 0 0 1 0 0 0 5 0 0 0 1 0 0 0 9 0zm-29 0l0 1 -16 0 0 -1 1 0 0 0 1 0 0 0 2 0 0 0 1 0 0 0 1 0 0 0 1 0 0 0 2 0 0 0 1 0 0 0 1 0 0 0 1 0 0 0 2 0 0 0 1 0 0 0 1 0zm-18 0l0 1 -3 0 0 0 -1 0 0 0 -2 0 0 0 -1 0 0 0 -1 0 0 0 -1 0 0 0 -2 0 0 0 -1 0 0 0 -3 0 0 -1 1 0 0 0 1 0 0 0 4 0 0 0 1 0 0 0 4 0 0 0 1 0 0 0 1 0 0 0 1 0 0 0 1 0zm-22 0l0 1 -4 0 0 0 -1 0 0 0 -4 0 0 0 -1 0 0 0 -1 0 0 0 -1 0 0 0 -17 0 0 -1 14 0 0 0 1 0 0 0 4 0 0 0 1 0 0 0 4 0 0 0 1 0 0 0 2 0 0 0 1 0 0 0 1 0zm-31 0l0 1 -33 0 0 -1 1 0 0 1 1 0 0 -1 2 0 0 1 1 0 0 -1 3 0 0 1 2 0 0 -1 9 0 0 1 1 0 0 -1 6 0 0 1 1 0 0 -1 6 0zm-35 0l0 1 -16 0 0 -1 16 0zm-17 0l0 0 -6 1 -10 0 0 -1 16 0zm-18 0l0 1 -16 0 0 -1 16 0zm-18 0l0 1 -33 0 0 -1 6 0 0 1 1 0 0 -1 6 0 0 1 1 0 0 -1 10 0 0 1 1 0 0 -1 3 0 0 1 1 0 0 -1 2 0 0 1 1 0 0 -1 1 0zm-70 4l0 2 -2 0 0 -2 -1 0 0 2 -1 0 0 -2 -1 0 0 2 -9 0 0 -2 -1 0 0 2 -1 0 0 -2 16 0zm-18 0l0 1 -16 0 0 -1 16 0zm276 0l0 1 -6 0 0 1 -6 0 0 -1 -1 0 0 1 -5 0 0 -1 -1 0 0 1 -8 0 0 -2 27 0zm-29 0l0 1 -16 0 0 -1 16 0zm-18 0l0 2 -1 0 0 -2 -1 0 0 2 -9 0 0 -2 -1 0 0 2 -1 0 0 -2 -1 0 0 2 -1 0 0 -2 15 0zm-22 0l0 2 -20 0 0 -1 -1 0 0 1 -4 0 0 -1 -1 0 0 1 -3 0 0 -2 3 0 1 0 2 0 1 0 7 0 0 2 1 0 0 -2 2 0 0 2 1 0 0 -2 4 0 0 2 1 0 0 -2 1 0 0 2 1 0 0 -2 2 0 0 2 1 0 0 -2 1 0zm-31 0l0 2 -4 0 0 -1 -1 0 0 1 -3 0 0 -1 -1 0 0 1 -4 0 0 -1 -1 0 0 1 -2 0 0 -2 16 0zm-17 0l0 2 -2 0 0 -1 -1 0 0 1 -1 0 0 -1 -1 0 0 1 -6 0 0 -1 -1 0 0 1 -4 0 0 -2 16 0zm-18 0l0 2 -1 0 0 -1 -1 0 0 1 -4 0 0 -1 -1 0 0 1 -2 0 0 -1 -1 0 0 1 -4 0 0 -1 -1 0 0 1 -1 0 0 -2 16 0zm-31 0l-2 1 0 -1 2 0zm-4 0l0 2 -1 0 0 -1 -1 0 0 1 -4 0 0 -1 -1 0 0 1 -2 0 0 -1 -1 0 0 1 -3 0 0 -1 -1 0 0 1 -2 0 0 -2 16 0zm-18 0l0 2 -4 0 0 -1 -1 0 0 1 -6 0 0 -1 -1 0 0 1 -1 0 0 -1 -1 0 0 1 -2 0 0 -2 16 0zm-17 0l0 2 -2 0 0 -1 -1 0 0 1 -4 0 0 -1 -1 0 0 1 -3 0 0 -1 -1 0 0 1 -4 0 0 -2 16 0zm-53 5l0 1 -7 0 0 0 -1 0 0 0 -1 0 0 0 -1 0 0 0 -4 0 0 0 -1 0 0 0 -1 0 0 -1 1 0 0 0 1 0 0 0 2 0 0 0 1 0 0 0 1 0 0 0 1 0 0 0 1 0 0 0 1 0 0 0 2 0 0 0 1 0 0 0 1 0 0 0 1 0 0 0 2 0zm252 0l0 1 -21 0 0 -1 8 0 0 0 1 0 0 0 8 0 0 0 1 0 0 0 3 0zm-41 0l0 1 -1 0 0 0 -1 0 0 0 -4 0 0 0 -1 0 0 0 -1 0 0 0 -1 0 0 0 -6 0 0 -1 1 0 0 0 1 0 0 0 1 0 0 0 1 0 0 0 2 0 0 0 1 0 0 0 1 0 0 0 1 0 0 0 2 0 0 0 1 0 0 0 1 0 0 0 1 0 0 0 1 0zm-22 0l0 1 -1 0 0 0 -1 0 0 0 -2 0 0 0 -1 0 0 0 -1 0 0 0 -1 0 0 0 -2 0 0 0 -1 0 0 0 -4 0 0 0 -1 0 0 0 -14 0 0 -1 3 0 0 1 1 0 0 -1 2 0 0 1 1 0 0 -1 1 0 0 1 1 0 0 -1 20 0zm-31 0l0 1 -16 0 0 -1 2 0 0 0 1 0 0 0 1 0 0 0 1 0 0 0 4 0 0 0 1 0 0 0 4 0 0 0 1 0 0 0 1 0zm-17 0l0 1 -16 0 0 -1 8 0 0 1 2 0 0 -1 6 0zm-18 0l0 1 -16 0 0 -1 4 0 0 1 1 0 0 -1 1 0 0 1 1 0 0 -1 4 0 0 1 1 0 0 -1 2 0 0 1 1 0 0 -1 1 0zm-35 0l0 1 -16 0 0 -1 2 0 0 1 1 0 0 -1 1 0 0 1 1 0 0 -1 4 0 0 1 1 0 0 -1 1 0 0 1 1 0 0 -1 4 0zm-18 0l0 1 -16 0 0 -1 7 0 0 1 1 0 0 -1 8 0zm-17 0l0 1 -16 0 0 -1 1 0 0 0 1 0 0 0 4 0 0 0 1 0 0 0 4 0 0 0 1 0 0 0 1 0 0 0 1 0 0 0 2 0zm-53 4l0 2 -16 0 0 -2 1 0 0 2 1 0 0 -2 2 0 0 2 1 0 0 -2 1 0 0 2 1 0 0 -2 1 0 0 2 1 0 0 -2 2 0 0 2 1 0 0 -2 1 0 0 2 1 0 0 -2 2 0zm252 0l0 2 -3 0 0 -1 -1 0 0 1 -17 0 0 -2 21 0zm-41 0l0 2 -15 0 0 -2 1 0 0 2 1 0 0 -2 1 0 0 2 1 0 0 -2 2 0 0 2 1 0 0 -2 1 0 0 2 1 0 0 -2 2 0 0 2 1 0 0 -2 1 0 0 2 1 0 0 -2 1 0zm-22 0l0 2 -22 0 0 -1 -1 0 0 1 -2 0 0 -1 -1 0 0 1 -3 0 0 -2 14 0 0 1 1 0 0 -1 2 0 0 1 1 0 0 -1 1 0 0 1 1 0 0 -1 2 0 0 1 1 0 0 -1 4 0 0 1 1 0 0 -1 1 0zm-31 0l0 2 -6 0 0 -2 -1 0 0 2 -4 0 0 -2 -1 0 0 2 -1 0 0 -2 -1 0 0 2 -2 0 0 -2 16 0zm-17 0l0 2 -2 0 0 -1 -1 0 0 1 -8 0 0 -1 -1 0 0 1 -2 0 0 -1 -1 0 0 1 -1 0 0 -2 16 0zm-18 0l0 2 -1 0 0 -1 -1 0 0 1 -2 0 0 -1 -1 0 0 1 -4 0 0 -1 -1 0 0 1 -1 0 0 -1 -1 0 0 1 -4 0 0 -2 16 0zm-35 0l0 2 -4 0 0 -1 -1 0 0 1 -1 0 0 -1 -1 0 0 1 -4 0 0 -1 -1 0 0 1 -1 0 0 -1 -1 0 0 1 -2 0 0 -2 16 0zm-18 0l0 2 -1 0 0 -1 -1 0 0 1 -2 0 0 -1 -1 0 0 1 -8 0 0 -1 -1 0 0 1 -2 0 0 -2 16 0zm-17 0l0 2 -2 0 0 -2 -1 0 0 2 -1 0 0 -2 -1 0 0 2 -4 0 0 -2 -1 0 0 2 -6 0 0 -2 16 0zm-53 5l0 1 -2 0 0 0 -1 0 0 0 -1 0 0 0 -1 0 0 0 -2 0 0 0 -1 0 0 0 -1 0 0 0 -1 0 0 0 -4 0 0 0 -1 0 0 0 -1 0 0 -1 16 0zm252 0l0 1 -21 0 0 -1 21 0zm-41 0l0 1 -1 0 0 0 -1 0 0 0 -4 0 0 0 -1 0 0 0 -1 0 0 0 -1 0 0 0 -2 0 0 0 -1 0 0 0 -1 0 0 0 -1 0 0 0 -1 0 0 -1 15 0zm-35 0l0 1 -16 0 0 -1 3 0 0 1 1 0 0 -1 2 0 0 1 1 0 0 -1 1 0 0 1 1 0 0 -1 7 0zm-18 0l0 1 -4 0 0 0 -1 0 0 0 -3 0 0 0 -1 0 0 0 -2 0 0 0 -1 0 0 0 -1 0 0 0 -1 0 0 0 -2 0 0 -1 16 0zm-17 0l0 1 -16 0 0 -1 4 0 0 1 1 0 0 -1 1 0 0 1 1 0 0 -1 1 0 0 1 2 0 0 -1 6 0zm-18 0l0 1 -16 0 0 -1 1 0 0 1 1 0 0 -1 4 0 0 1 1 0 0 -1 2 0 0 1 1 0 0 -1 4 0 0 1 1 0 0 -1 1 0zm-35 0l0 1 -16 0 0 -1 2 0 0 1 1 0 0 -1 3 0 0 1 1 0 0 -1 2 0 0 1 1 0 0 -1 4 0 0 1 1 0 0 -1 1 0zm-18 0l0 1 -16 0 0 -1 7 0 0 1 1 0 0 -1 1 0 0 1 1 0 0 -1 1 0 0 1 1 0 0 -1 4 0zm-17 0l0 1 -2 0 0 0 -1 0 0 0 -1 0 0 0 -1 0 0 0 -2 0 0 0 -1 0 0 0 -3 0 0 0 -1 0 0 0 -4 0 0 -1 16 0zm-18 0l0 1 -16 0 0 -1 7 0 0 1 1 0 0 -1 1 0 0 1 1 0 0 -1 2 0 0 1 1 0 0 -1 3 0zm-21 5l0 1 0 0 0 -1 0 0zm-14 0l0 1 -16 0 0 -1 1 0 0 0 1 0 0 0 2 0 0 0 1 0 0 0 1 0 0 0 1 0 0 0 1 0 0 0 1 0 0 0 2 0 0 0 1 0 0 0 1 0 0 0 1 0 0 0 2 0zm252 0l0 1 -9 0 0 -1 9 0zm-10 0l0 1 -2 0 0 -1 2 0zm-3 0l0 1 -5 0 0 -1 5 0zm-6 0l0 1 -2 0 0 -1 2 0zm-22 0l0 1 -15 0 0 -1 1 0 0 0 1 0 0 0 1 0 0 0 1 0 0 0 2 0 0 0 1 0 0 0 1 0 0 0 1 0 0 0 2 0 0 0 1 0 0 0 1 0 0 0 1 0 0 0 1 0zm-35 0l0 1 -7 0 0 -1 -1 0 0 1 -1 0 0 -1 -1 0 0 1 -2 0 0 -1 -1 0 0 1 -3 0 0 -1 16 0zm-18 0l0 1 -1 0 0 -1 1 0zm-2 0l0 1 -2 0 0 -1 2 0zm-3 0l0 1 -3 0 0 -1 3 0zm-4 0l0 1 -4 0 0 -1 4 0zm-5 0l0 1 -2 0 0 -1 2 0zm-3 0l0 1 -9 0 0 -1 9 0zm-10 0l0 1 -4 0 0 -1 4 0zm-5 0l0 1 -1 0 0 -1 1 0zm-38 0l-2 1 -14 0 0 -1 16 0zm-18 0l0 1 -1 0 0 -1 1 0zm-2 0l0 1 -4 0 0 -1 4 0zm-5 0l0 1 -9 0 0 -1 9 0zm-10 0l0 1 -2 0 0 -1 2 0zm-3 0l0 1 -4 0 0 -1 4 0zm-5 0l0 1 -3 0 0 -1 3 0zm-4 0l0 1 -2 0 0 -1 2 0zm-3 0l0 1 -1 0 0 -1 1 0zm-3 0l0 1 -3 0 0 -1 -1 0 0 1 -2 0 0 -1 -1 0 0 1 -1 0 0 -1 -1 0 0 1 -7 0 0 -1 16 0zm-21 4l0 1 0 0 0 -1 0 0zm-14 0l0 1 -2 0 0 0 -1 0 0 0 -1 0 0 0 -1 0 0 0 -2 0 0 0 -1 0 0 0 -1 0 0 0 -1 0 0 0 -1 0 0 0 -1 0 0 0 -4 0 0 -1 16 0zm252 0l0 1 -21 0 0 -1 21 0zm-41 0l0 1 -3 0 0 0 -1 0 0 0 -2 0 0 0 -1 0 0 0 -1 0 0 0 -1 0 0 0 -2 0 0 0 -1 0 0 0 -1 0 0 0 -1 0 0 0 -1 0 0 -1 15 0zm-53 0l0 1 -4 0 0 0 -1 0 0 0 -3 0 0 0 -1 0 0 0 -4 0 0 0 -1 0 0 0 -2 0 0 -1 16 0zm-17 0l0 1 -16 0 0 -1 16 0zm-61 0l0 1 -8 0 0 -1 8 0zm-10 0l0 1 -16 0 0 -1 16 0zm-17 0l0 1 -2 0 0 0 -1 0 0 0 -4 0 0 0 -1 0 0 0 -3 0 0 0 -1 0 0 0 -4 0 0 -1 16 0zm-18 0l0 1 -9 0 -1 -1 10 0zm-37 5l0 1 -13 0 0 -1 13 0zm254 0l0 1 -21 0 0 -1 2 0 0 1 1 0 0 -1 2 0 0 1 1 0 0 -1 5 0 0 1 1 0 0 -1 5 0 0 1 1 0 0 -1 3 0zm-42 0l0 1 -13 0 0 -1 13 0zm-52 0l0 1 -16 0 0 -1 2 0 0 1 1 0 0 -1 1 0 0 1 1 0 0 -1 2 0 0 1 1 0 0 -1 1 0 0 1 1 0 0 -1 1 0 0 1 1 0 0 -1 2 0 0 1 1 0 0 -1 1 0zm-17 0l0 1 -2 0 0 -1 2 0zm-3 0l0 1 -1 0 0 -1 1 0zm-2 0l0 1 -4 0 0 -1 4 0zm-5 0l0 1 -1 0 0 -1 1 0zm-2 0l0 1 -2 0 0 -1 2 0zm-3 0l0 1 -1 0 0 -1 1 0zm-47 0l0 1 -7 0 0 -1 7 0zm-9 0l0 1 -1 0 0 -1 1 0zm-2 0l0 1 -2 0 0 -1 2 0zm-3 0l0 1 -1 0 0 -1 1 0zm-2 0l0 1 -4 0 0 -1 4 0zm-5 0l0 1 -1 0 0 -1 1 0zm-2 0l0 1 -2 0 0 -1 2 0zm-3 0l0 1 -16 0 0 -1 1 0 0 1 1 0 0 -1 2 0 0 1 1 0 0 -1 1 0 0 1 1 0 0 -1 1 0 0 1 1 0 0 -1 2 0 0 1 1 0 0 -1 1 0 0 1 1 0 0 -1 2 0zm-18 0l0 1 -7 0 0 -1 7 0zm-43 5l0 0 -1 0 0 0 1 0zm260 0l0 0 -3 0 0 0 -1 0 0 0 -8 0 0 0 -1 0 0 0 -5 0 0 0 -1 0 0 0 -2 0 0 0 21 0zm-94 0l0 0 -1 0 0 0 -1 0 0 0 -2 0 0 0 -1 0 0 0 -1 0 0 0 -1 0 0 0 -4 0 0 0 -1 0 0 0 -4 0 0 0 16 0zm-17 0l0 0 -16 0 0 0 16 0zm-66 0l-1 0 -2 0 0 0 3 0zm-5 0l0 0 -16 0 0 0 16 0zm-17 0l0 0 -4 0 0 0 -1 0 0 0 -4 0 0 0 -1 0 0 0 -1 0 0 0 -1 0 0 0 -2 0 0 0 -1 0 0 0 -1 0 0 0 16 0zm-18 0l0 0 -5 0 0 0 5 0zm-43 4l0 1 -1 0 0 -1 1 0zm260 0l0 1 -21 0 0 -1 2 0 0 0 1 0 0 0 2 0 0 0 1 0 0 0 5 0 0 0 1 0 0 0 2 0 0 0 1 0 0 0 6 0zm-94 0l0 1 -16 0 0 -1 16 0zm-17 0l0 1 -2 0 0 -1 2 0zm-3 0l0 1 -3 0 0 -1 3 0zm-5 0l0 1 -1 0 0 -1 1 0zm-2 0l0 1 -1 0 0 -1 1 0zm-2 0l0 1 -2 0 0 -1 2 0zm-3 0l0 1 -1 0 0 -1 1 0zm-56 0l0 1 -1 0 0 -1 1 0zm-2 0l0 1 -2 0 0 -1 2 0zm-3 0l0 1 -1 0 0 -1 1 0zm-2 0l0 1 -1 0 0 -1 1 0zm-2 0l0 1 -4 0 0 -1 4 0zm-5 0l0 1 -2 0 0 -1 2 0zm-3 0l0 1 -16 0 0 -1 16 0zm-61 5l0 0 -1 0 0 0 1 0zm260 0l0 0 -3 0 0 0 3 0zm-4 0l0 0 -2 0 0 0 2 0zm-3 0l0 0 -2 0 0 0 2 0zm-3 0l0 0 -5 0 0 0 5 0zm-6 0l0 0 -5 0 0 0 5 0zm-78 0l0 0 -1 0 0 0 1 0zm-2 0l0 0 -2 0 0 0 2 0zm-3 0l0 0 -3 0 0 0 3 0zm-4 0l0 0 -2 0 0 0 2 0zm-3 0l0 0 -1 0 0 0 1 0zm-2 0l0 0 -2 0 0 0 2 0zm-74 0l0 0 -16 0 0 0 16 0zm-17 0l0 0 -2 0 0 0 2 0zm-3 0l0 0 -1 0 0 0 1 0zm-2 0l0 0 -2 0 0 0 2 0zm-3 0l0 0 -3 0 0 0 3 0zm-4 0l0 0 -2 0 0 0 2 0zm-3 0l0 0 -1 0 0 0 1 0zm207 -63l1 0 0 -2 -1 0 0 2zm-6 0l1 0 0 -2 -1 0 0 2zm-6 0l1 0 0 -2 -1 0 0 2zm-6 0l1 0 0 -2 -1 0 0 2zm-8 0l1 0 0 -2 -1 0 0 2zm-51 18l1 0 0 -1 -1 0 0 1zm-2 0l1 0 0 -1 -1 0 0 1zm-3 0l1 0 0 -1 -1 0 0 1zm24 -4l1 0 0 -2 -1 0 0 2zm-5 0l1 0 0 -2 -1 0 0 2zm-8 0l1 0 0 -2 -1 0 0 2zm33 -14l1 0 0 -2 -1 0 0 2zm-8 0l1 0 0 -2 -1 0 0 2zm-78 9l1 0 0 -1 -1 0 0 1zm-13 0l1 0 0 -1 -1 0 0 1zm10 9l1 0 0 -1 -1 0 0 1zm-5 0l1 0 0 -1 -1 0 0 1zm-5 0l1 0 0 -1 -1 0 0 1zm28 -9l1 0 0 -1 -1 0 0 1zm-167 -9l-2 0 0 -2 2 0 0 2zm7 0l-1 0 0 -2 1 0 0 2zm51 18l-1 0 0 -1 1 0 0 1zm2 0l-1 0 0 -1 1 0 0 1zm3 0l-1 0 0 -1 1 0 0 1zm-24 -4l-1 0 0 -2 1 0 0 2zm5 0l-1 0 0 -2 1 0 0 2zm8 0l-1 0 0 -2 1 0 0 2zm-32 -14l-1 0 0 -2 1 0 0 2zm7 0l-1 0 0 -2 1 0 0 2zm79 9l-1 0 0 -1 1 0 0 1zm12 0l-1 0 0 -1 1 0 0 1zm-10 9l-1 0 0 -1 1 0 0 1zm5 0l-1 0 0 -1 1 0 0 1zm5 0l-1 0 0 -1 1 0 0 1zm-28 -9l-1 0 0 -1 1 0 0 1z"/></g><text x="0" y="214" fill="#000000" font-size="5px" font-weight="bold" font-family="'Helvetica Neue', Helvetica, Arial-Unicode, Arial, Sans-serif">Created by kareemov</text><text x="0" y="219" fill="#000000" font-size="5px" font-weight="bold" font-family="'Helvetica Neue', Helvetica, Arial-Unicode, Arial, Sans-serif">from the Noun Project</text></svg>