<svg xmlns="http://www.w3.org/2000/svg" xmlns:xlink="http://www.w3.org/1999/xlink" viewBox="0 0 60 75" version="1.1" x="0px" y="0px"><title>40 -Brackets- (Outline)</title><desc>Created with Sketch.</desc><g stroke="none" stroke-width="1" fill="none" fill-rule="evenodd"><g transform="translate(-1200.000000, -690.000000)" fill="#000000"><g transform="translate(1200.000000, 690.000000)"><path d="M2,10 L2,57 C2,57.551 2.448,58 3,58 L57,58 C57.552,58 58,57.551 58,57 L58,10 L2,10 Z M57,60 L3,60 C1.346,60 0,58.654 0,57 L0,9 C0,8.448 0.447,8 1,8 L59,8 C59.553,8 60,8.448 60,9 L60,57 C60,58.654 58.654,60 57,60 L57,60 Z"/><path d="M2,8 L58,8 L58,3 C58,2.449 57.552,2 57,2 L3,2 C2.448,2 2,2.449 2,3 L2,8 Z M59,10 L1,10 C0.447,10 0,9.552 0,9 L0,3 C0,1.346 1.346,0 3,0 L57,0 C58.654,0 60,1.346 60,3 L60,9 C60,9.552 59.553,10 59,10 L59,10 Z"/><path d="M6,5 C6,5.552 5.553,6 5,6 C4.447,6 4,5.552 4,5 C4,4.448 4.447,4 5,4 C5.553,4 6,4.448 6,5"/><path d="M10,5 C10,5.552 9.553,6 9,6 C8.447,6 8,5.552 8,5 C8,4.448 8.447,4 9,4 C9.553,4 10,4.448 10,5"/><path d="M14,5 C14,5.552 13.553,6 13,6 C12.447,6 12,5.552 12,5 C12,4.448 12.447,4 13,4 C13.553,4 14,4.448 14,5"/><path d="M29,32 C26.794,32 25,30.206 25,28 L25,24.414 L23.293,22.707 C22.902,22.316 22.902,21.684 23.293,21.293 L25,19.586 L25,16 C25,13.794 26.794,12 29,12 C29.553,12 30,12.448 30,13 C30,13.552 29.553,14 29,14 C27.897,14 27,14.897 27,16 L27,20 C27,20.265 26.895,20.52 26.707,20.707 L25.414,22 L26.707,23.293 C26.895,23.48 27,23.735 27,24 L27,28 C27,29.103 27.897,30 29,30 C29.553,30 30,30.448 30,31 C30,31.552 29.553,32 29,32"/><path d="M10,56 C9.447,56 9,55.552 9,55 C9,54.448 9.447,54 10,54 C11.103,54 12,53.103 12,52 L12,48 C12,47.735 12.105,47.48 12.293,47.293 L13.586,46 L12.293,44.707 C12.104,44.519 11.999,44.264 12,43.998 L12.008,39.998 C12.008,38.897 11.107,38 10,38 C9.447,38 9,37.552 9,37 C9,36.448 9.447,36 10,36 C12.21,36 14.008,37.794 14.008,40 L14.001,43.586 L15.707,45.293 C16.098,45.684 16.098,46.316 15.707,46.707 L14,48.414 L14,52 C14,54.206 12.206,56 10,56"/><path d="M18,32 L6,32 C5.447,32 5,31.552 5,31 C5,30.448 5.447,30 6,30 L18,30 C18.553,30 19,30.448 19,31 C19,31.552 18.553,32 18,32"/></g></g></g><text x="0" y="75" fill="#000000" font-size="5px" font-weight="bold" font-family="'Helvetica Neue', Helvetica, Arial-Unicode, Arial, Sans-serif">Created by Ben Davis</text><text x="0" y="80" fill="#000000" font-size="5px" font-weight="bold" font-family="'Helvetica Neue', Helvetica, Arial-Unicode, Arial, Sans-serif">from the Noun Project</text></svg>